<svg width="7798" height="1539" viewBox="0 0 7798 1539" fill="none" xmlns="http://www.w3.org/2000/svg">
<g clip-path="url(#clip0_1_12)">
<path opacity="0.4" d="M1283.39 0H137.885C132.027 0 127.279 5.13335 127.279 11.4656V286.641C127.279 292.974 132.027 298.107 137.885 298.107H1283.39C1289.25 298.107 1294 292.974 1294 286.641V11.4656C1294 5.13335 1289.25 0 1283.39 0Z" fill="#007BFF"/>
<path opacity="0.4" d="M859.131 538.885H137.885C132.027 538.885 127.279 544.019 127.279 550.351V825.527C127.279 831.859 132.027 836.992 137.885 836.992H859.131C864.989 836.992 869.738 831.859 869.738 825.527V550.351C869.738 544.019 864.989 538.885 859.131 538.885Z" fill="#007BFF"/>
<path opacity="0.4" d="M392.443 1077.77H137.885C132.027 1077.77 127.279 1082.9 127.279 1089.24V1364.41C127.279 1370.74 132.027 1375.88 137.885 1375.88H392.443C398.3 1375.88 403.049 1370.74 403.049 1364.41V1089.24C403.049 1082.9 398.3 1077.77 392.443 1077.77Z" fill="#007BFF"/>
<path opacity="0.65" d="M1219.75 63.0611H74.2459C68.3881 63.0611 63.6393 68.1944 63.6393 74.5267V349.702C63.6393 356.035 68.3881 361.168 74.2459 361.168H1219.75C1225.61 361.168 1230.36 356.035 1230.36 349.702V74.5267C1230.36 68.1944 1225.61 63.0611 1219.75 63.0611Z" fill="#007BFF"/>
<path opacity="0.65" d="M795.492 601.947H74.2459C68.3881 601.947 63.6393 607.08 63.6393 613.412V888.588C63.6393 894.92 68.3881 900.053 74.2459 900.053H795.492C801.35 900.053 806.098 894.92 806.098 888.588V613.412C806.098 607.08 801.35 601.947 795.492 601.947Z" fill="#007BFF"/>
<path opacity="0.65" d="M328.803 1140.83H74.2459C68.3881 1140.83 63.6393 1145.97 63.6393 1152.3V1427.47C63.6393 1433.81 68.3881 1438.94 74.2459 1438.94H328.803C334.661 1438.94 339.41 1433.81 339.41 1427.47V1152.3C339.41 1145.97 334.661 1140.83 328.803 1140.83Z" fill="#007BFF"/>
<path d="M1156.11 126.122H10.6066C4.74872 126.122 0 131.255 0 137.588V412.763C0 419.096 4.74872 424.229 10.6066 424.229H1156.11C1161.97 424.229 1166.72 419.096 1166.72 412.763V137.588C1166.72 131.255 1161.97 126.122 1156.11 126.122Z" fill="#007BFF"/>
<path d="M731.853 665.008H10.6066C4.74872 665.008 0 670.141 0 676.473V951.649C0 957.981 4.74872 963.115 10.6066 963.115H731.853C737.71 963.115 742.459 957.981 742.459 951.649V676.473C742.459 670.141 737.71 665.008 731.853 665.008Z" fill="#007BFF"/>
<path d="M265.164 1203.89H10.6066C4.74872 1203.89 0 1209.03 0 1215.36V1490.53C0 1496.87 4.74872 1502 10.6066 1502H265.164C271.022 1502 275.77 1496.87 275.77 1490.53V1215.36C275.77 1209.03 271.022 1203.89 265.164 1203.89Z" fill="#007BFF"/>
</g>
<path d="M2301.32 300.44V475.8H1935.24V665.24H2209.16V835.48H1935.24V1199H1716.36V300.44H2301.32ZM2741.48 1209.24C2671.51 1209.24 2608.36 1194.31 2552.04 1164.44C2496.57 1134.57 2452.63 1091.91 2420.2 1036.44C2388.63 980.973 2372.84 916.12 2372.84 841.88C2372.84 768.493 2389.05 704.067 2421.48 648.6C2453.91 592.28 2498.28 549.187 2554.6 519.32C2610.92 489.453 2674.07 474.52 2744.04 474.52C2814.01 474.52 2877.16 489.453 2933.48 519.32C2989.8 549.187 3034.17 592.28 3066.6 648.6C3099.03 704.067 3115.24 768.493 3115.24 841.88C3115.24 915.267 3098.6 980.12 3065.32 1036.44C3032.89 1091.91 2988.09 1134.57 2930.92 1164.44C2874.6 1194.31 2811.45 1209.24 2741.48 1209.24ZM2741.48 1019.8C2783.29 1019.8 2818.71 1004.44 2847.72 973.72C2877.59 943 2892.52 899.053 2892.52 841.88C2892.52 784.707 2878.01 740.76 2849 710.04C2820.84 679.32 2785.85 663.96 2744.04 663.96C2701.37 663.96 2665.96 679.32 2637.8 710.04C2609.64 739.907 2595.56 783.853 2595.56 841.88C2595.56 899.053 2609.21 943 2636.52 973.72C2664.68 1004.44 2699.67 1019.8 2741.48 1019.8ZM3450.24 603.8C3475.84 564.547 3507.84 533.827 3546.24 511.64C3584.64 488.6 3627.31 477.08 3674.24 477.08V708.76H3614.08C3559.47 708.76 3518.51 720.707 3491.2 744.6C3463.89 767.64 3450.24 808.6 3450.24 867.48V1199H3231.36V484.76H3450.24V603.8ZM4690.22 477.08C4778.97 477.08 4849.37 503.96 4901.42 557.72C4954.33 611.48 4980.78 686.147 4980.78 781.72V1199H4763.18V811.16C4763.18 765.08 4750.81 729.667 4726.06 704.92C4702.17 679.32 4668.89 666.52 4626.22 666.52C4583.55 666.52 4549.85 679.32 4525.1 704.92C4501.21 729.667 4489.26 765.08 4489.26 811.16V1199H4271.66V811.16C4271.66 765.08 4259.29 729.667 4234.54 704.92C4210.65 679.32 4177.37 666.52 4134.7 666.52C4092.03 666.52 4058.33 679.32 4033.58 704.92C4009.69 729.667 3997.74 765.08 3997.74 811.16V1199H3778.86V484.76H3997.74V574.36C4019.93 544.493 4048.94 521.027 4084.78 503.96C4120.62 486.04 4161.15 477.08 4206.38 477.08C4260.14 477.08 4307.93 488.6 4349.74 511.64C4392.41 534.68 4425.69 567.533 4449.58 610.2C4474.33 570.947 4508.03 538.947 4550.7 514.2C4593.37 489.453 4639.87 477.08 4690.22 477.08ZM5807.14 830.36C5807.14 850.84 5805.86 872.173 5803.3 894.36H5307.94C5311.35 938.733 5325.43 972.867 5350.18 996.76C5375.78 1019.8 5406.93 1031.32 5443.62 1031.32C5498.23 1031.32 5536.21 1008.28 5557.54 962.2H5790.5C5778.55 1009.13 5756.79 1051.37 5725.22 1088.92C5694.5 1126.47 5655.67 1155.91 5608.74 1177.24C5561.81 1198.57 5509.33 1209.24 5451.3 1209.24C5381.33 1209.24 5319.03 1194.31 5264.42 1164.44C5209.81 1134.57 5167.14 1091.91 5136.42 1036.44C5105.7 980.973 5090.34 916.12 5090.34 841.88C5090.34 767.64 5105.27 702.787 5135.14 647.32C5165.86 591.853 5208.53 549.187 5263.14 519.32C5317.75 489.453 5380.47 474.52 5451.3 474.52C5520.42 474.52 5581.86 489.027 5635.62 518.04C5689.38 547.053 5731.19 588.44 5761.06 642.2C5791.78 695.96 5807.14 758.68 5807.14 830.36ZM5583.14 772.76C5583.14 735.213 5570.34 705.347 5544.74 683.16C5519.14 660.973 5487.14 649.88 5448.74 649.88C5412.05 649.88 5380.9 660.547 5355.3 681.88C5330.55 703.213 5315.19 733.507 5309.22 772.76H5583.14ZM6141.49 603.8C6167.09 564.547 6199.09 533.827 6237.49 511.64C6275.89 488.6 6318.56 477.08 6365.49 477.08V708.76H6305.33C6250.72 708.76 6209.76 720.707 6182.45 744.6C6155.14 767.64 6141.49 808.6 6141.49 867.48V1199H5922.61V484.76H6141.49V603.8ZM6688.99 251.8V1199H6470.11V251.8H6688.99ZM7577.21 484.76L7129.21 1538.2H6893.69L7057.53 1174.68L6766.97 484.76H7011.45L7176.57 931.48L7340.41 484.76H7577.21Z" fill="#007BFF"/>
<defs>
<clipPath id="clip0_1_12">
<rect width="1294" height="1502" fill="white"/>
</clipPath>
</defs>
</svg>
